<svg xmlns="http://www.w3.org/2000/svg" width="15.167" height="16.036" viewBox="0 0 15.167 16.036">
  <g id="Group_10396" data-name="Group 10396" transform="translate(0.2 0.2)">
    <path id="Path_15094" data-name="Path 15094" d="M6527.905,16357.888a.858.858,0,0,1-.842-.873v-12.026a.858.858,0,0,1,.842-.872h2.379v-1a.841.841,0,1,1,1.681,0v1h4.963v-1a.842.842,0,1,1,1.683,0v1h2.38a.855.855,0,0,1,.838.872v12.026a.856.856,0,0,1-.838.873Zm.842-1.745h11.4v-6.756h-11.4Zm11.4-8.5v-1.782h-11.4v1.782Z" transform="translate(-6527.063 -16342.252)" fill="#3f465d" stroke="#fff" stroke-width="0.4"/>
  </g>
</svg>
