<?xml version="1.0" standalone="no"?>
<!DOCTYPE svg PUBLIC "-//W3C//DTD SVG 20010904//EN"
 "http://www.w3.org/TR/2001/REC-SVG-20010904/DTD/svg10.dtd">
<svg version="1.0" xmlns="http://www.w3.org/2000/svg"
 width="348.000000pt" height="363.000000pt" viewBox="0 0 348.000000 363.000000"
 preserveAspectRatio="xMidYMid meet">

<g transform="translate(0.000000,363.000000) scale(0.100000,-0.100000)"
fill="#000000" stroke="none">
<path d="M2291 3604 c-76 -20 -162 -56 -228 -95 -75 -45 -183 -149 -1068
-1034 -806 -805 -823 -824 -900 -1002 -66 -152 -80 -227 -79 -423 0 -147 4
-187 22 -252 121 -440 467 -734 915 -780 172 -18 361 13 517 84 172 78 161 67
1093 997 483 482 885 888 893 903 38 73 2 171 -73 197 -87 31 -41 72 -975
-865 -469 -471 -880 -875 -913 -899 -78 -55 -143 -87 -235 -117 -65 -20 -95
-23 -220 -23 -132 1 -152 3 -225 28 -201 70 -361 209 -450 392 -62 127 -78
197 -78 335 0 171 37 298 127 431 56 83 1729 1753 1796 1793 81 48 145 67 240
73 166 10 311 -48 426 -170 94 -100 128 -174 132 -294 5 -109 -13 -179 -65
-268 -27 -45 -209 -234 -722 -748 -767 -769 -733 -740 -870 -741 -92 -1 -158
27 -205 87 -29 36 -31 45 -31 120 0 72 4 89 30 136 22 40 172 194 590 608 308
306 568 567 577 582 48 72 -4 187 -92 206 -71 16 -76 12 -673 -584 -313 -311
-589 -595 -614 -630 -61 -84 -93 -174 -100 -281 -16 -249 121 -444 358 -505
48 -13 92 -16 179 -13 126 5 187 23 295 89 77 47 1439 1411 1493 1497 185 289
172 620 -37 881 -106 134 -270 241 -428 281 -97 24 -318 27 -402 4z"/>
</g>
</svg>
