<svg xmlns="http://www.w3.org/2000/svg" width="12" height="12" viewBox="0 0 12 12">
  <g id="Time" transform="translate(0.186 0.092)">
    <rect id="Rectangle_6848" data-name="Rectangle 6848" width="12" height="12" transform="translate(-0.186 -0.092)" fill="#14b8a6" opacity="0"/>
    <path id="Subtraction_36" data-name="Subtraction 36" d="M6,12a6,6,0,1,1,6-6A6.008,6.008,0,0,1,6,12ZM3.4,5.761a.73.73,0,0,0-.51.2.681.681,0,0,0,0,.986L4.628,8.64a.666.666,0,0,0,.994-.076c.007-.01.732-1.034,1.61-2.089s1.945-2.18,1.956-2.192a.675.675,0,0,0,.132-.514.69.69,0,0,0-.287-.461.74.74,0,0,0-1.01.15c-.008.008-.849.846-1.593,1.723S5.005,7.013,5,7.023L3.906,5.965A.73.73,0,0,0,3.4,5.761Z" transform="translate(-0.186 -0.092)" fill="#14b8a6"/>
  </g>
</svg>
